<svg xmlns="http://www.w3.org/2000/svg" xmlns:xlink="http://www.w3.org/1999/xlink" aria-hidden="true" focusable="false" width="1em" height="1em" style="-ms-transform: rotate(360deg); -webkit-transform: rotate(360deg); transform: rotate(360deg);" preserveAspectRatio="xMidYMid meet" viewBox="0 0 24 24">
    <path d="M12 22C6.477 22 2 17.523 2 12S6.477 2 12 2s10 4.477 10 10s-4.477 10-10 10zm0-2a8 8 0 1 0 0-16a8 8 0 0 0 0 16zm0-13a1 1 0 0 1 1 1v5a1 1 0 0 1-2 0V8a1 1 0 0 1 1-1zm0 10a1 1 0 1 1 0-2a1 1 0 0 1 0 2z" fill="#626262" />
</svg>