<svg width="24" height="24" viewBox="0 0 24 24" fill="none" xmlns="http://www.w3.org/2000/svg">
    <path d="M8.41406 12.657L12.3641 16.607C12.5417 16.7965 12.6387 17.0476 12.6345 17.3073C12.6303 17.567 12.5252 17.8148 12.3415 17.9984C12.1578 18.182 11.9098 18.2869 11.6501 18.2909C11.3905 18.295 11.1394 18.1978 10.9501 18.02L5.29306 12.364C5.19987 12.2714 5.12592 12.1612 5.07546 12.0399C5.025 11.9185 4.99902 11.7884 4.99902 11.657C4.99902 11.5256 5.025 11.3955 5.07546 11.2742C5.12592 11.1528 5.19987 11.0427 5.29306 10.95L10.9501 5.29302C11.0423 5.19751 11.1526 5.12133 11.2747 5.06892C11.3967 5.01651 11.5279 4.98892 11.6607 4.98777C11.7934 4.98662 11.9251 5.01192 12.048 5.0622C12.1709 5.11248 12.2826 5.18673 12.3765 5.28062C12.4703 5.37452 12.5446 5.48617 12.5949 5.60907C12.6452 5.73196 12.6705 5.86364 12.6693 5.99642C12.6682 6.1292 12.6406 6.26042 12.5882 6.38242C12.5358 6.50443 12.4596 6.61477 12.3641 6.70702L8.41406 10.657H18.0001C18.2653 10.657 18.5196 10.7624 18.7072 10.9499C18.8947 11.1374 19.0001 11.3918 19.0001 11.657C19.0001 11.9222 18.8947 12.1766 18.7072 12.3641C18.5196 12.5517 18.2653 12.657 18.0001 12.657H8.41406Z" fill="black" />
</svg>