<svg width="24" height="24" viewBox="0 0 24 24" fill="none" xmlns="http://www.w3.org/2000/svg">
    <path d="M15.586 13L9.944 13C9.67879 13 9.42443 12.8946 9.2369 12.7071C9.04936 12.5196 8.944 12.2652 8.944 12C8.944 11.7348 9.04936 11.4804 9.2369 11.2929C9.42443 11.1054 9.67879 11 9.944 11L15.586 11L14.464 9.879C14.2764 9.69123 14.171 9.4366 14.1711 9.17115C14.1712 8.90569 14.2767 8.65114 14.4645 8.4635C14.6523 8.27586 14.9069 8.1705 15.1724 8.17059C15.4378 8.17068 15.6924 8.27623 15.88 8.464L18.707 11.293C18.8002 11.3857 18.8741 11.4958 18.9246 11.6171C18.9751 11.7385 19.001 11.8686 19.001 12C19.001 12.1314 18.9751 12.2615 18.9246 12.3829C18.8741 12.5042 18.8002 12.6143 18.707 12.707L15.879 15.536C15.786 15.6289 15.6757 15.7026 15.5542 15.7529C15.4328 15.8031 15.3026 15.829 15.1711 15.8289C15.0397 15.8289 14.9096 15.8029 14.7881 15.7526C14.6667 15.7022 14.5564 15.6285 14.4635 15.5355C14.3706 15.4425 14.2969 15.3322 14.2466 15.2107C14.1964 15.0893 14.1705 14.9591 14.1706 14.8276C14.1706 14.6962 14.1966 14.5661 14.2469 14.4446C14.2973 14.3232 14.371 14.2129 14.464 14.12L15.586 13ZM13 8C13 8.26522 12.8946 8.51957 12.7071 8.70711C12.5196 8.89464 12.2652 9 12 9C11.7348 9 11.4804 8.89464 11.2929 8.70711C11.1054 8.51957 11 8.26522 11 8V7H7L7 17H11V16C11 15.7348 11.1054 15.4804 11.2929 15.2929C11.4804 15.1054 11.7348 15 12 15C12.2652 15 12.5196 15.1054 12.7071 15.2929C12.8946 15.4804 13 15.7348 13 16V17C13 17.5304 12.7893 18.0391 12.4142 18.4142C12.0391 18.7893 11.5304 19 11 19H7C6.46957 19 5.96086 18.7893 5.58579 18.4142C5.21072 18.0391 5 17.5304 5 17L5 7C5 6.46957 5.21072 5.96086 5.58579 5.58579C5.96086 5.21071 6.46957 5 7 5H11C11.5304 5 12.0391 5.21071 12.4142 5.58579C12.7893 5.96086 13 6.46957 13 7V8Z" fill="black" />
</svg>
