<svg width="24" height="24" viewBox="0 0 24 24" fill="none" xmlns="http://www.w3.org/2000/svg">
    <path d="M12 18C6.958 18.007 2 15.314 2 12C2 8.68602 6.984 5.98302 12 6.00002C17.016 6.01702 22 8.68602 22 12C22 15.314 17.042 17.993 12 18ZM12 16C13.0609 16 14.0783 15.5786 14.8284 14.8284C15.5786 14.0783 16 13.0609 16 12C16 10.9392 15.5786 9.92174 14.8284 9.17159C14.0783 8.42145 13.0609 8.00002 12 8.00002C10.9391 8.00002 9.92172 8.42145 9.17157 9.17159C8.42143 9.92174 8 10.9392 8 12C8 13.0609 8.42143 14.0783 9.17157 14.8284C9.92172 15.5786 10.9391 16 12 16V16ZM12 14C11.4696 14 10.9609 13.7893 10.5858 13.4142C10.2107 13.0392 10 12.5305 10 12C10 11.4696 10.2107 10.9609 10.5858 10.5858C10.9609 10.2107 11.4696 10 12 10C12.5304 10 13.0391 10.2107 13.4142 10.5858C13.7893 10.9609 14 11.4696 14 12C14 12.5305 13.7893 13.0392 13.4142 13.4142C13.0391 13.7893 12.5304 14 12 14Z" fill="black" />
</svg>
